<svg width="25" height="17" viewBox="0 0 25 17" fill="none" xmlns="http://www.w3.org/2000/svg">
<path d="M19.6367 16.2744C19.9004 16.5469 20.3223 16.5645 20.5947 16.2744C20.876 15.9844 20.8584 15.5889 20.5947 15.3164L5.89941 0.629883C5.63574 0.366211 5.19629 0.366211 4.93262 0.629883C4.67773 0.884766 4.67773 1.33301 4.93262 1.58789L19.6367 16.2744ZM20.4717 13.7344C23.0381 12.0381 24.7168 9.70898 24.7168 8.66309C24.7168 6.87891 19.8389 1.19238 12.8076 1.19238C11.3135 1.19238 9.90723 1.44727 8.63281 1.86914L10.918 4.1543C11.498 3.9082 12.1309 3.76758 12.8076 3.76758C15.5234 3.76758 17.7207 5.9209 17.7207 8.66309C17.7207 9.33105 17.5713 9.97266 17.3076 10.5352L20.4717 13.7344ZM12.8076 16.1338C14.4336 16.1338 15.9453 15.835 17.2725 15.3428L14.9697 13.04C14.3193 13.374 13.5811 13.5586 12.8076 13.5586C10.0654 13.5586 7.89453 11.335 7.88574 8.66309C7.88574 7.87207 8.07031 7.125 8.39551 6.46582L5.38965 3.44238C2.62109 5.17383 0.889648 7.6084 0.889648 8.66309C0.889648 10.4385 5.85547 16.1338 12.8076 16.1338ZM15.6025 8.47852C15.6025 6.94043 14.3633 5.69238 12.8076 5.69238C12.6934 5.69238 12.5791 5.70117 12.4736 5.70996L15.585 8.82129C15.5938 8.71582 15.6025 8.59277 15.6025 8.47852ZM10.0039 8.46094C10.0039 10.0078 11.2783 11.2559 12.8164 11.2559C12.9395 11.2559 13.0537 11.2471 13.1768 11.2383L10.0215 8.08301C10.0127 8.20605 10.0039 8.33789 10.0039 8.46094Z" fill="#B0C1CE"/>
</svg>
