<svg width="25" height="16" viewBox="0 0 25 16" fill="none" xmlns="http://www.w3.org/2000/svg">
<path d="M12.8076 15.1338C19.8477 15.1338 24.7168 9.43848 24.7168 7.66309C24.7168 5.87891 19.8389 0.192383 12.8076 0.192383C5.85547 0.192383 0.889648 5.87891 0.889648 7.66309C0.889648 9.43848 5.85547 15.1338 12.8076 15.1338ZM12.8076 12.5586C10.0654 12.5586 7.89453 10.335 7.88574 7.66309C7.87695 4.9209 10.0654 2.76758 12.8076 2.76758C15.5234 2.76758 17.7207 4.9209 17.7207 7.66309C17.7207 10.335 15.5234 12.5586 12.8076 12.5586ZM12.8076 9.42969C13.7832 9.42969 14.5918 8.62988 14.5918 7.66309C14.5918 6.6875 13.7832 5.8877 12.8076 5.8877C11.8232 5.8877 11.0146 6.6875 11.0146 7.66309C11.0146 8.62988 11.8232 9.42969 12.8076 9.42969Z" fill="#B0C1CE"/>
</svg>
