<svg width="19" height="19" viewBox="0 0 19 19" fill="none" xmlns="http://www.w3.org/2000/svg">
<path d="M9.53809 18.6191C14.4424 18.6191 18.5029 14.5498 18.5029 9.6543C18.5029 4.75 14.4336 0.689453 9.5293 0.689453C4.63379 0.689453 0.573242 4.75 0.573242 9.6543C0.573242 14.5498 4.64258 18.6191 9.53809 18.6191ZM9.4502 6.44629C8.79102 6.44629 8.26367 5.91895 8.26367 5.25098C8.26367 4.58301 8.79102 4.05566 9.4502 4.05566C10.1094 4.05566 10.6279 4.58301 10.6279 5.25098C10.6279 5.91895 10.1094 6.44629 9.4502 6.44629ZM7.94727 14.6553C7.56934 14.6553 7.2793 14.3828 7.2793 14.0049C7.2793 13.6533 7.56934 13.3633 7.94727 13.3633H9.06348V9.23242H8.09668C7.72754 9.23242 7.4375 8.95996 7.4375 8.58203C7.4375 8.23047 7.72754 7.94043 8.09668 7.94043H9.80176C10.2676 7.94043 10.5137 8.27441 10.5137 8.7666V13.3633H11.6299C12.0078 13.3633 12.2979 13.6533 12.2979 14.0049C12.2979 14.3828 12.0078 14.6553 11.6299 14.6553H7.94727Z" fill="#B0C1CE"/>
</svg>
